{"images":[{"uri":"baseColor_1.jpg","name":"baseColor_1.jpg"},{"uri":"baseColor_2.jpg","name":"baseColor_2.jpg"},{"uri":"baseColor_3.jpg","name":"baseColor_3.jpg"},{"uri":"metallicRoughness_3.jpg","name":"metallicRoughness_3.jpg"},{"uri":"normal_3.jpg","name":"normal_3.jpg"},{"uri":"metallicRoughness_2.jpg","name":"metallicRoughness_2.jpg"},{"uri":"metallicRoughness_1.jpg","name":"metallicRoughness_1.jpg"},{"uri":"normal_2.jpg","name":"normal_2.jpg"},{"uri":"normal_1.jpg","name":"normal_1.jpg"}],"accessors":[{"componentType":5126,"max":[300.7352294921875,533.2184448242188,2482.665283203125],"bufferView":0,"count":841,"type":"VEC3","min":[-300.73419189453125,-533.2191162109375,-2482.665283203125],"byteOffset":0},{"componentType":5126,"bufferView":0,"count":841,"type":"VEC3","byteOffset":12},{"componentType":5126,"bufferView":0,"count":841,"type":"VEC2","byteOffset":24},{"componentType":5123,"bufferView":1,"count":1668,"type":"SCALAR","byteOffset":0},{"componentType":5123,"bufferView":1,"count":3630,"type":"SCALAR","byteOffset":3336},{"componentType":5123,"bufferView":1,"count":11556,"type":"SCALAR","byteOffset":10596},{"componentType":5123,"bufferView":1,"count":72,"type":"SCALAR","byteOffset":33708},{"componentType":5123,"bufferView":1,"count":936,"type":"SCALAR","byteOffset":33852},{"componentType":5123,"bufferView":1,"count":13860,"type":"SCALAR","byteOffset":35724},{"componentType":5123,"bufferView":1,"count":75900,"type":"SCALAR","byteOffset":63444},{"componentType":5125,"bufferView":1,"count":286272,"type":"SCALAR","byteOffset":215244},{"componentType":5123,"bufferView":1,"count":56772,"type":"SCALAR","byteOffset":1360332},{"componentType":5123,"bufferView":1,"count":40836,"type":"SCALAR","byteOffset":1473876},{"componentType":5123,"bufferView":1,"count":83952,"type":"SCALAR","byteOffset":1555548},{"componentType":5123,"bufferView":1,"count":24456,"type":"SCALAR","byteOffset":1723452},{"componentType":5123,"bufferView":1,"count":89496,"type":"SCALAR","byteOffset":1772364},{"componentType":5123,"bufferView":1,"count":2640,"type":"SCALAR","byteOffset":1951356},{"componentType":5126,"max":[336.0526428222656,1387.1778564453125,2959.362548828125],"bufferView":2,"count":2314,"type":"VEC3","min":[-336.0526428222656,-1387.1778564453125,-2959.363037109375],"byteOffset":0},{"componentType":5126,"bufferView":2,"count":2314,"type":"VEC3","byteOffset":12},{"componentType":5126,"bufferView":2,"count":2314,"type":"VEC2","byteOffset":24},{"componentType":5126,"max":[317.3358154296875,1379.9371337890625,2986.20458984375],"bufferView":3,"count":7704,"type":"VEC3","min":[-317.3358154296875,-1379.9361572265625,-2986.205078125],"byteOffset":0},{"componentType":5126,"bufferView":3,"count":7704,"type":"VEC3","byteOffset":12},{"componentType":5126,"bufferView":3,"count":7704,"type":"VEC2","byteOffset":24},{"componentType":5126,"max":[-17746.3046875,1480.3067626953125,-2609.951416015625],"bufferView":4,"count":48,"type":"VEC3","min":[-18190.150390625,725.7096557617188,-6937.6005859375],"byteOffset":0},{"componentType":5126,"bufferView":4,"count":48,"type":"VEC3","byteOffset":12},{"componentType":5126,"bufferView":4,"count":48,"type":"VEC2","byteOffset":24},{"componentType":5126,"max":[-17742.044921875,1485.067626953125,-2608.337158203125],"bufferView":5,"count":528,"type":"VEC3","min":[-18194.412109375,720.9484252929688,-6941.8623046875],"byteOffset":0},{"componentType":5126,"bufferView":5,"count":528,"type":"VEC3","byteOffset":12},{"componentType":5126,"bufferView":5,"count":528,"type":"VEC2","byteOffset":24},{"componentType":5126,"max":[427.22674560546875,1253.36962890625,2973.5634765625],"bufferView":6,"count":9186,"type":"VEC3","min":[-427.22674560546875,-1253.36962890625,-2973.566162109375],"byteOffset":0},{"componentType":5126,"bufferView":6,"count":9186,"type":"VEC3","byteOffset":12},{"componentType":5126,"bufferView":6,"count":9186,"type":"VEC2","byteOffset":24},{"componentType":5126,"max":[497.6521911621094,750.7718505859375,3130.952880859375],"bufferView":7,"count":43528,"type":"VEC3","min":[-497.6521911621094,-750.7727661132812,-3130.953125],"byteOffset":0},{"componentType":5126,"bufferView":7,"count":43528,"type":"VEC3","byteOffset":12},{"componentType":5126,"bufferView":7,"count":43528,"type":"VEC2","byteOffset":24},{"componentType":5126,"max":[480.7339782714844,119.76301574707031,2427.210693359375],"bufferView":8,"count":118222,"type":"VEC3","min":[-480.7360534667969,-101.82183074951172,-2427.210693359375],"byteOffset":0},{"componentType":5126,"bufferView":8,"count":118222,"type":"VEC3","byteOffset":12},{"componentType":5126,"bufferView":8,"count":118222,"type":"VEC2","byteOffset":24},{"componentType":5126,"max":[303.6012878417969,693.956298828125,2443.22802734375],"bufferView":9,"count":37197,"type":"VEC3","min":[-303.6012878417969,-693.95703125,-2443.22802734375],"byteOffset":0},{"componentType":5126,"bufferView":9,"count":37197,"type":"VEC3","byteOffset":12},{"componentType":5126,"bufferView":9,"count":37197,"type":"VEC2","byteOffset":24},{"componentType":5126,"max":[327.2628479003906,1392.4097900390625,3068.57666015625],"bufferView":10,"count":25538,"type":"VEC3","min":[-327.2638854980469,-1392.409423828125,-3068.574462890625],"byteOffset":0},{"componentType":5126,"bufferView":10,"count":25538,"type":"VEC3","byteOffset":12},{"componentType":5126,"bufferView":10,"count":25538,"type":"VEC2","byteOffset":24},{"componentType":5126,"max":[309.2667236328125,275.1254577636719,2471.511474609375],"bufferView":11,"count":51936,"type":"VEC3","min":[-309.26568603515625,-275.4798583984375,-2471.513671875],"byteOffset":0},{"componentType":5126,"bufferView":11,"count":51936,"type":"VEC3","byteOffset":12},{"componentType":5126,"bufferView":11,"count":51936,"type":"VEC2","byteOffset":24},{"componentType":5126,"max":[359.6319274902344,1205.3575439453125,2921.02685546875],"bufferView":12,"count":14251,"type":"VEC3","min":[-359.6308898925781,-1205.3575439453125,-2921.02734375],"byteOffset":0},{"componentType":5126,"bufferView":12,"count":14251,"type":"VEC3","byteOffset":12},{"componentType":5126,"bufferView":12,"count":14251,"type":"VEC2","byteOffset":24},{"componentType":5126,"max":[472.2035217285156,1388.898193359375,2424.650634765625],"bufferView":13,"count":57573,"type":"VEC3","min":[-472.2035217285156,-1388.8974609375,-2424.651123046875],"byteOffset":0},{"componentType":5126,"bufferView":13,"count":57573,"type":"VEC3","byteOffset":12},{"componentType":5126,"bufferView":13,"count":57573,"type":"VEC2","byteOffset":24},{"componentType":5126,"max":[299.4552917480469,1289.744140625,2974.3115234375],"bufferView":14,"count":1202,"type":"VEC3","min":[-299.4552917480469,-1289.7440185546875,-2974.311279296875],"byteOffset":0},{"componentType":5126,"bufferView":14,"count":1202,"type":"VEC3","byteOffset":12},{"componentType":5126,"bufferView":14,"count":1202,"type":"VEC2","byteOffset":24}],"extensionsUsed":["KHR_materials_specular"],"textures":[{"source":0,"sampler":0},{"source":1,"sampler":0},{"source":2,"sampler":0},{"source":3,"sampler":0},{"source":4,"sampler":0},{"source":5,"sampler":0},{"source":6,"sampler":0},{"source":7,"sampler":0},{"source":8,"sampler":0}],"buffers":[{"byteLength":13798812,"uri":"0fa55807afc642679014d4cfd635fc46.bin"}],"bufferViews":[{"byteLength":26912,"byteStride":32,"target":34962,"byteOffset":0,"buffer":0},{"byteLength":1956636,"target":34963,"byteOffset":26912,"buffer":0},{"byteLength":74048,"byteStride":32,"target":34962,"byteOffset":1983548,"buffer":0},{"byteLength":246528,"byteStride":32,"target":34962,"byteOffset":2057596,"buffer":0},{"byteLength":1536,"byteStride":32,"target":34962,"byteOffset":2304124,"buffer":0},{"byteLength":16896,"byteStride":32,"target":34962,"byteOffset":2305660,"buffer":0},{"byteLength":293952,"byteStride":32,"target":34962,"byteOffset":2322556,"buffer":0},{"byteLength":1392896,"byteStride":32,"target":34962,"byteOffset":2616508,"buffer":0},{"byteLength":3783104,"byteStride":32,"target":34962,"byteOffset":4009404,"buffer":0},{"byteLength":1190304,"byteStride":32,"target":34962,"byteOffset":7792508,"buffer":0},{"byteLength":817216,"byteStride":32,"target":34962,"byteOffset":8982812,"buffer":0},{"byteLength":1661952,"byteStride":32,"target":34962,"byteOffset":9800028,"buffer":0},{"byteLength":456032,"byteStride":32,"target":34962,"byteOffset":11461980,"buffer":0},{"byteLength":1842336,"byteStride":32,"target":34962,"byteOffset":11918012,"buffer":0},{"byteLength":38464,"byteStride":32,"target":34962,"byteOffset":13760348,"buffer":0}],"samplers":[{"magFilter":9729,"minFilter":9987}],"scene":0,"nodes":[{"rotation":[0,0.7071067094802856,0,0.7071068286895752],"name":"XL_Bldg_B_Bldg_Main","translation":[614.1602783203125,959.7938232421875,2.137382745742798],"mesh":0},{"rotation":[0,0.7071067094802856,0,0.7071068286895752],"name":"XL_Bldg_B_Bldg_Rear","translation":[-161.14051818847656,1387.1778564453125,0.004628722555935383],"mesh":1},{"rotation":[0,0.7071067094802856,0,0.7071068286895752],"name":"XL_Bldg_B_bLINE_All_Grp","translation":[-128.11415100097656,1387.6416015625,0.00462622893974185],"mesh":2},{"rotation":[0,0.7071067094802856,0,0.7071068286895752],"name":"XL_Bldg_B_Door","translation":[5539.2900390625,88.20257568359375,-17967.158203125],"mesh":3},{"rotation":[0,0.7071067094802856,0,0.7071068286895752],"name":"XL_Bldg_B_LG_Props_Details","translation":[-117.18836975097656,1262.7105712890625,-0.5324839949607849],"mesh":4},{"rotation":[0,0.7071067094802856,0,0.7071068286895752],"name":"XL_Bldg_B_LG_Ribs_Vent_Supports","translation":[-0.0018243597587570548,750.7727661132812,0.004616556689143181],"mesh":5},{"rotation":[0,0.7071067094802856,0,0.7071068286895752],"name":"XL_Bldg_B_LG_SuppVents","translation":[-695.0994262695312,113.7369384765625,0.004669035319238901],"mesh":6},{"rotation":[0,0.7071067094802856,0,0.7071068286895752],"name":"XL_Bldg_B_Mull_Pod_Frames","translation":[581.3380126953125,758.2037963867188,1.4088695049285889],"mesh":7},{"rotation":[0,0.7071067094802856,0,0.7071068286895752],"name":"XL_Bldg_B_Props_Details","translation":[30.98838233947754,1394.744140625,0.004614217206835747],"mesh":8},{"rotation":[0,0.7071067094802856,0,0.7071068286895752],"name":"XL_Bldg_B_Rails_All_Grp","translation":[616.7813720703125,1089.17138671875,0.004569991026073694],"mesh":9},{"rotation":[0,0.7071067094802856,0,0.7071068286895752],"name":"XL_Bldg_B_Ribs_Lower_Details","translation":[-144.13465881347656,1205.3575439453125,0.004627438262104988],"mesh":10},{"rotation":[0,0.7071067094802856,0,0.7071068286895752],"name":"XL_Bldg_B_Vent_Slats","translation":[-695.0994873046875,1395.0960693359375,0.004669035319238901],"mesh":11},{"rotation":[0,0.7071067094802856,0,0.7071068286895752],"name":"XL_Bldg_B_WindowsGlass","translation":[122.5137710571289,1364.3941650390625,0.0046073067933321],"mesh":12},{"rotation":[0,0.7071067094802856,0,0.7071068286895752],"scale":[0.02539999969303608,0.02539999969303608,0.02539999969303608],"children":[0,1,2,3,4,5,6,7,8,9,10,11,12],"name":"XL_Bldg_B","translation":[-0.00011009889453816868,0,-0.00004957903939839525]}],"materials":[{"normalTexture":{"index":8,"scale":0.30000001192092896},"pbrMetallicRoughness":{"metallicRoughnessTexture":{"index":6},"baseColorFactor":[1,1,1,1],"baseColorTexture":{"index":0}},"extensions":{"KHR_materials_specular":{"specularFactor":0.3}},"name":"ConcBunker","doubleSided":true},{"normalTexture":{"index":7,"scale":0.30000001192092896},"pbrMetallicRoughness":{"metallicRoughnessTexture":{"index":5},"baseColorFactor":[1,1,1,1],"baseColorTexture":{"index":1}},"extensions":{"KHR_materials_specular":{"specularFactor":0.3}},"name":"DoorSingle","doubleSided":true},{"pbrMetallicRoughness":{"roughnessFactor":0.858578622341156,"baseColorFactor":[0.5879999995231628,0.5879999995231628,0.5879999995231628,1]},"extensions":{"KHR_materials_specular":{"specularFactor":0.3}},"name":"MullionDark","doubleSided":true},{"normalTexture":{"index":4,"scale":0.30000001192092896},"pbrMetallicRoughness":{"metallicRoughnessTexture":{"index":3},"baseColorFactor":[1,1,1,1],"baseColorTexture":{"index":2}},"extensions":{"KHR_materials_specular":{"specularFactor":0.3}},"name":"ConcGeneral","doubleSided":true},{"pbrMetallicRoughness":{"roughnessFactor":0.858578622341156,"baseColorFactor":[0.1390224537347025,0.20109572962134564,0.3111804990579844,1]},"extensions":{"KHR_materials_specular":{"specularFactor":0.3}},"name":"Window","doubleSided":true}],"scenes":[{"nodes":[13],"name":"Scene"}],"asset":{"generator":"CG美术之家","source":"https://www.cgmszj.com/model/104341.html","version":"2.0"},"meshes":[{"primitives":[{"mode":4,"indices":3,"material":0,"attributes":{"POSITION":0,"TEXCOORD_0":2,"NORMAL":1}}],"name":"网格.114"},{"primitives":[{"mode":4,"indices":4,"material":0,"attributes":{"POSITION":17,"TEXCOORD_0":19,"NORMAL":18}}],"name":"网格.111"},{"primitives":[{"mode":4,"indices":5,"material":0,"attributes":{"POSITION":20,"TEXCOORD_0":22,"NORMAL":21}}],"name":"网格.103"},{"primitives":[{"mode":4,"indices":6,"material":1,"attributes":{"POSITION":23,"TEXCOORD_0":25,"NORMAL":24}},{"mode":4,"indices":7,"material":0,"attributes":{"POSITION":26,"TEXCOORD_0":28,"NORMAL":27}}],"name":"网格.115"},{"primitives":[{"mode":4,"indices":8,"material":0,"attributes":{"POSITION":29,"TEXCOORD_0":31,"NORMAL":30}}],"name":"网格.107"},{"primitives":[{"mode":4,"indices":9,"material":0,"attributes":{"POSITION":32,"TEXCOORD_0":34,"NORMAL":33}}],"name":"网格.112"},{"primitives":[{"mode":4,"indices":10,"material":0,"attributes":{"POSITION":35,"TEXCOORD_0":37,"NORMAL":36}}],"name":"网格.110"},{"primitives":[{"mode":4,"indices":11,"material":2,"attributes":{"POSITION":38,"TEXCOORD_0":40,"NORMAL":39}}],"name":"网格.105"},{"primitives":[{"mode":4,"indices":12,"material":0,"attributes":{"POSITION":41,"TEXCOORD_0":43,"NORMAL":42}}],"name":"网格.109"},{"primitives":[{"mode":4,"indices":13,"material":2,"attributes":{"POSITION":44,"TEXCOORD_0":46,"NORMAL":45}}],"name":"网格.104"},{"primitives":[{"mode":4,"indices":14,"material":3,"attributes":{"POSITION":47,"TEXCOORD_0":49,"NORMAL":48}}],"name":"网格.108"},{"primitives":[{"mode":4,"indices":15,"material":2,"attributes":{"POSITION":50,"TEXCOORD_0":52,"NORMAL":51}}],"name":"网格.106"},{"primitives":[{"mode":4,"indices":16,"material":4,"attributes":{"POSITION":53,"TEXCOORD_0":55,"NORMAL":54}}],"name":"网格.113"}]}